# xmcd
#
# Track frame offsets:
#	150
#	11485
#	20827
#	32845
#	43075
#	55460
#	66302
#	78232
#	90647
#	100067
#
# Disc length: 1459 seconds
#
# Revision: 1
# Processed by: cddbd v1.4PL0 Copyright (c) Steve Scherf et al.
# Submitted via: audiograbber 1.81.02
#
DISCID=7e05b10a
DTITLE=Jim Reeves - According To my Heart [RCA Camden]
DYEAR=1900
DGENRE=
TTITLE0=According To My Heart
TTITLE1=Poor Little Doll
TTITLE2=Don't Tell Me
TTITLE3=You'll Never Be Mine Again
TTITLE4=I've Lived A Lot In My Time
TTITLE5=If You Were Mine
TTITLE6=Don't Ask Me Why
TTITLE7=Stand At Your Window
TTITLE8=What Would You Do?
TTITLE9=I Can't Fly
EXTD=
EXTT0=
EXTT1=
EXTT2=
EXTT3=
EXTT4=
EXTT5=
EXTT6=
EXTT7=
EXTT8=
EXTT9=
PLAYORDER=
